<?xml version="1.0" encoding="UTF-8" ?>
<!DOCTYPE svg PUBLIC "-//W3C//DTD SVG 1.1//EN" "http://www.w3.org/Graphics/SVG/1.1/DTD/svg11.dtd">
<svg width="222pt" height="233pt" viewBox="0 0 222 233" version="1.1" xmlns="http://www.w3.org/2000/svg">
<path fill="#feffff" d=" M 0.00 0.00 L 222.00 0.00 L 222.00 233.00 L 175.98 233.00 C 176.02 228.73 176.06 224.48 176.20 220.22 C 177.22 213.46 176.99 206.63 176.92 199.83 C 177.22 198.53 177.65 197.26 177.95 195.96 C 178.83 185.21 175.65 174.76 174.80 164.12 C 174.63 162.57 174.27 159.46 174.09 157.91 C 172.85 152.11 174.55 146.63 177.92 141.96 C 184.07 132.33 188.35 121.52 190.26 110.25 C 190.99 102.88 192.00 95.13 190.25 87.85 L 190.04 87.10 C 188.36 72.85 182.56 58.80 173.31 47.77 C 166.79 37.89 157.56 30.37 147.16 24.85 C 129.66 15.33 107.93 14.53 89.01 20.01 C 64.39 27.63 51.08 52.72 43.79 75.75 C 39.83 87.37 37.66 100.17 40.65 112.28 C 42.78 122.73 45.80 133.34 51.71 142.33 C 60.01 154.65 67.22 169.00 63.38 184.40 C 62.35 190.98 59.88 197.66 61.77 204.36 C 61.94 205.88 62.47 207.41 63.69 208.42 C 71.34 213.73 66.90 225.04 68.01 233.00 L 0.00 233.00 L 0.00 0.00 Z" />
<path fill="#79abd3" d=" M 89.01 20.01 C 107.93 14.53 129.66 15.33 147.16 24.85 C 133.93 21.84 120.86 16.52 107.03 19.10 C 88.95 21.88 71.21 31.59 61.36 47.35 C 53.14 59.42 47.79 73.32 45.74 87.78 C 42.15 106.43 46.41 124.66 51.71 142.33 C 45.80 133.34 42.78 122.73 40.65 112.28 C 39.61 99.89 43.67 87.97 43.79 75.75 C 51.08 52.72 64.39 27.63 89.01 20.01 Z" />
<path fill="#4790c7" d=" M 107.03 19.10 C 120.86 16.52 133.93 21.84 147.16 24.85 C 157.56 30.37 166.79 37.89 173.31 47.77 C 172.75 47.47 171.62 46.85 171.06 46.55 C 158.02 33.01 140.63 22.28 121.24 23.19 C 121.81 28.47 123.24 34.44 116.27 35.12 C 115.02 41.16 105.44 43.49 106.44 50.67 C 104.72 53.39 102.35 55.63 100.39 58.16 C 96.75 55.31 97.18 61.00 97.19 63.25 C 97.24 65.57 97.80 67.84 98.16 70.13 C 95.97 68.70 95.81 72.26 98.08 70.83 C 95.85 72.29 98.56 74.28 99.19 71.68 C 100.14 73.06 101.09 74.46 101.92 75.93 L 101.02 75.80 C 100.54 75.56 100.54 75.56 101.02 75.80 C 101.32 76.31 101.92 77.33 102.22 77.84 C 100.82 79.82 103.95 80.24 103.15 77.97 C 103.35 77.78 103.73 77.40 103.93 77.21 C 107.21 82.22 117.38 75.62 113.25 86.19 C 110.24 81.84 111.16 86.25 111.90 89.08 C 109.15 79.94 99.76 81.04 95.23 87.98 C 92.33 83.73 92.52 89.11 92.73 91.66 C 92.37 92.68 92.00 93.71 91.64 94.75 C 87.57 97.90 83.68 101.34 80.28 105.22 C 84.19 115.24 91.01 123.66 95.89 133.11 C 97.55 137.66 92.51 135.26 90.02 134.97 C 88.99 134.05 88.02 133.06 87.08 132.06 C 88.67 132.01 90.84 132.31 89.98 129.98 C 88.49 122.99 82.65 117.89 78.10 112.76 C 73.76 105.38 71.19 97.16 69.34 88.84 C 71.59 79.44 69.68 68.04 75.97 59.98 C 81.31 50.85 90.20 44.00 93.92 33.94 C 95.12 30.96 91.84 32.15 90.17 32.49 L 89.28 32.73 C 81.15 34.53 74.68 41.48 72.38 49.37 C 71.80 51.80 70.18 53.80 68.12 55.16 C 66.95 52.57 64.17 51.17 63.04 54.60 C 52.99 68.26 57.15 86.00 61.90 100.98 C 61.73 106.45 64.87 111.12 67.32 115.76 C 69.80 124.03 79.93 123.15 84.30 129.78 C 81.84 129.58 79.48 128.89 77.09 128.37 C 74.30 130.25 77.10 134.40 76.74 137.20 C 68.82 133.12 61.73 124.73 63.33 115.21 C 62.49 109.80 60.12 104.43 56.75 100.13 C 53.77 98.83 52.73 102.09 52.46 104.42 C 52.15 111.31 51.17 118.22 51.93 125.12 C 47.04 113.30 46.61 100.35 45.74 87.78 C 47.79 73.32 53.14 59.42 61.36 47.35 C 71.21 31.59 88.95 21.88 107.03 19.10 Z" />
<path fill="#3782ba" d=" M 121.24 23.19 C 140.63 22.28 158.02 33.01 171.06 46.55 C 166.85 47.29 168.54 51.25 168.65 54.24 C 166.17 53.49 165.71 49.91 162.91 49.92 C 166.19 61.30 176.23 71.01 174.85 83.87 C 171.49 93.82 165.99 103.91 167.78 114.78 C 165.74 118.68 160.10 114.20 158.31 118.32 C 156.18 123.40 159.77 129.02 156.83 134.06 C 148.24 122.00 134.94 115.31 123.81 106.09 C 121.53 98.79 116.17 93.09 113.25 86.19 C 117.38 75.62 107.21 82.22 103.93 77.21 C 103.43 76.89 102.42 76.25 101.92 75.93 C 101.09 74.46 100.14 73.06 99.19 71.68 L 98.72 70.95 C 98.58 70.74 98.30 70.33 98.16 70.13 C 97.80 67.84 97.24 65.57 97.19 63.25 C 98.66 61.83 99.95 60.21 100.39 58.16 C 102.35 55.63 104.72 53.39 106.44 50.67 C 105.44 43.49 115.02 41.16 116.27 35.12 C 123.24 34.44 121.81 28.47 121.24 23.19 Z" />
<path fill="#78aed5" d=" M 90.17 32.49 C 91.84 32.15 95.12 30.96 93.92 33.94 C 90.20 44.00 81.31 50.85 75.97 59.98 C 75.94 59.48 75.87 58.49 75.84 58.00 C 78.76 48.57 89.74 42.39 90.17 32.49 Z" />
<path fill="#62a4d2" d=" M 72.38 49.37 C 74.68 41.48 81.15 34.53 89.28 32.73 C 80.71 38.41 75.01 46.64 70.76 55.90 C 68.92 58.54 68.44 62.08 66.00 64.26 C 61.27 63.65 66.63 56.87 63.04 54.60 C 64.17 51.17 66.95 52.57 68.12 55.16 C 70.18 53.80 71.80 51.80 72.38 49.37 Z" />
<path fill="#cbe9f8" d=" M 89.28 32.73 L 90.17 32.49 C 89.74 42.39 78.76 48.57 75.84 58.00 C 73.29 58.83 69.95 59.99 70.76 55.90 C 75.01 46.64 80.71 38.41 89.28 32.73 Z" />
<path fill="#367ab1" d=" M 168.65 54.24 C 168.54 51.25 166.85 47.29 171.06 46.55 C 171.62 46.85 172.75 47.47 173.31 47.77 C 182.56 58.80 188.36 72.85 190.04 87.10 C 185.91 82.49 186.94 73.04 181.06 70.89 C 181.04 83.98 184.74 98.42 177.32 110.22 C 174.80 120.25 164.60 127.40 165.66 138.34 C 171.31 151.21 168.53 165.43 172.40 178.66 C 174.44 184.27 172.06 191.10 166.99 194.12 C 160.99 188.79 160.41 179.99 160.67 172.30 C 159.29 169.78 156.67 168.77 153.92 168.95 C 150.80 162.46 159.73 158.66 164.80 156.93 C 165.95 147.92 155.57 139.23 147.21 143.31 C 137.44 148.25 126.17 147.99 115.55 149.41 C 107.31 151.16 98.94 147.78 93.23 141.80 C 90.85 137.70 82.59 140.26 86.14 145.86 C 86.13 151.79 94.51 154.55 93.18 160.32 C 81.34 155.89 78.25 141.68 67.71 135.30 C 61.92 133.07 66.24 142.37 66.62 145.35 C 67.06 152.38 69.86 158.42 74.06 163.98 C 81.15 171.14 65.02 180.55 74.31 186.92 C 74.05 192.75 64.50 201.17 68.67 205.13 C 68.74 205.60 68.87 206.55 68.93 207.02 C 67.44 208.27 65.65 209.26 63.69 208.42 C 62.47 207.41 61.94 205.88 61.77 204.36 C 64.43 191.48 68.34 178.35 70.62 165.40 C 64.02 152.15 55.44 139.72 51.93 125.12 C 51.17 118.22 52.15 111.31 52.46 104.42 C 52.73 102.09 53.77 98.83 56.75 100.13 C 60.12 104.43 62.49 109.80 63.33 115.21 C 61.73 124.73 68.82 133.12 76.74 137.20 C 77.10 134.40 74.30 130.25 77.09 128.37 C 79.48 128.89 81.84 129.58 84.30 129.78 C 85.26 130.48 86.19 131.25 87.08 132.06 C 88.02 133.06 88.99 134.05 90.02 134.97 C 96.60 140.80 104.80 145.83 113.97 145.07 C 121.67 149.79 118.98 134.65 125.23 138.74 C 128.02 144.32 138.01 143.96 140.53 138.46 C 144.99 136.13 150.34 137.37 155.17 136.85 C 158.48 139.20 158.38 136.68 156.83 134.06 C 159.77 129.02 156.18 123.40 158.31 118.32 C 160.10 114.20 165.74 118.68 167.78 114.78 C 165.99 103.91 171.49 93.82 174.85 83.87 C 176.23 71.01 166.19 61.30 162.91 49.92 C 165.71 49.91 166.17 53.49 168.65 54.24 Z" />
<path fill="#7bbae6" d=" M 63.04 54.60 C 66.63 56.87 61.27 63.65 66.00 64.26 C 58.51 67.58 60.84 76.77 61.65 83.34 C 63.47 86.11 65.51 93.25 69.34 88.84 C 71.19 97.16 73.76 105.38 78.10 112.76 C 78.44 115.26 79.30 117.65 79.96 120.08 C 70.27 119.27 66.69 108.11 61.90 100.98 C 57.15 86.00 52.99 68.26 63.04 54.60 Z" />
<path fill="#93caf1" d=" M 66.00 64.26 C 68.44 62.08 68.92 58.54 70.76 55.90 C 69.95 59.99 73.29 58.83 75.84 58.00 C 75.87 58.49 75.94 59.48 75.97 59.98 C 69.68 68.04 71.59 79.44 69.34 88.84 C 65.51 93.25 63.47 86.11 61.65 83.34 C 60.84 76.77 58.51 67.58 66.00 64.26 Z" />
<path fill="#588fba" d=" M 97.19 63.25 C 97.18 61.00 96.75 55.31 100.39 58.16 C 99.95 60.21 98.66 61.83 97.19 63.25 Z" />
<path fill="#588fba" d=" M 94.26 60.09 C 99.19 61.10 89.76 64.97 94.26 60.09 Z" />
<path fill="#588fba" d=" M 90.13 65.13 C 89.40 64.40 89.40 64.40 90.13 65.13 Z" />
<path fill="#588fba" d=" M 90.13 65.13 C 90.32 65.32 90.68 65.68 90.87 65.87 C 90.68 65.68 90.32 65.32 90.13 65.13 Z" />
<path fill="#588fba" d=" M 90.87 65.87 C 91.59 66.59 91.59 66.59 90.87 65.87 Z" />
<path fill="#588fba" d=" M 95.23 66.23 C 95.82 66.82 95.82 66.82 95.23 66.23 Z" />
<path fill="#588fba" d=" M 89.12 69.15 C 88.40 68.40 88.40 68.40 89.12 69.15 Z" />
<path fill="#588fba" d=" M 91.23 68.23 C 91.82 68.82 91.82 68.82 91.23 68.23 Z" />
<path fill="#588fba" d=" M 96.23 68.23 C 96.82 68.82 96.82 68.82 96.23 68.23 Z" />
<path fill="#588fba" d=" M 89.12 69.15 C 89.29 69.34 89.64 69.74 89.82 69.94 C 89.64 69.74 89.29 69.34 89.12 69.15 Z" />
<path fill="#588fba" d=" M 89.82 69.94 C 93.05 70.31 88.73 73.22 89.82 69.94 Z" />
<path fill="#588fba" d=" M 98.08 70.83 C 95.81 72.26 95.97 68.70 98.16 70.13 L 98.08 70.83 Z" />
<path fill="#4790c7" d=" M 98.16 70.13 C 98.30 70.33 98.58 70.74 98.72 70.95 L 98.08 70.83 L 98.16 70.13 Z" />
<path fill="#588fba" d=" M 87.23 71.23 C 87.82 71.82 87.82 71.82 87.23 71.23 Z" />
<path fill="#588fba" d=" M 98.08 70.83 L 98.72 70.95 L 99.19 71.68 C 98.56 74.28 95.85 72.29 98.08 70.83 Z" />
<path fill="#306899" d=" M 181.06 70.89 C 186.94 73.04 185.91 82.49 190.04 87.10 L 190.25 87.85 C 189.99 95.32 190.02 102.78 190.26 110.25 C 188.35 121.52 184.07 132.33 177.92 141.96 C 174.55 146.63 172.85 152.11 174.09 157.91 C 174.27 159.46 174.63 162.57 174.80 164.12 C 175.65 174.76 178.83 185.21 177.95 195.96 C 176.57 196.62 175.16 197.21 173.77 197.84 C 171.74 198.27 170.81 199.98 170.83 201.95 C 169.93 202.36 169.02 202.76 168.11 203.15 C 159.27 198.13 159.64 187.65 157.31 179.00 C 157.68 178.97 158.42 178.92 158.79 178.89 C 156.39 172.81 151.40 168.49 146.36 164.61 C 134.53 163.08 122.75 166.71 110.98 164.23 C 102.31 162.91 93.63 163.93 84.95 163.25 C 85.95 166.16 87.36 168.93 88.09 171.94 C 84.87 172.96 81.45 173.19 78.24 174.27 C 76.89 178.49 77.31 183.30 74.31 186.92 C 65.02 180.55 81.15 171.14 74.06 163.98 C 69.86 158.42 67.06 152.38 66.62 145.35 C 66.24 142.37 61.92 133.07 67.71 135.30 C 78.25 141.68 81.34 155.89 93.18 160.32 C 95.75 157.45 97.37 153.87 102.30 156.73 C 112.66 159.60 123.33 155.09 133.84 156.72 C 141.50 153.38 155.63 158.55 152.31 168.75 C 152.71 168.80 153.51 168.90 153.92 168.95 C 156.67 168.77 159.29 169.78 160.67 172.30 C 160.41 179.99 160.99 188.79 166.99 194.12 C 172.06 191.10 174.44 184.27 172.40 178.66 C 168.53 165.43 171.31 151.21 165.66 138.34 C 164.60 127.40 174.80 120.25 177.32 110.22 C 184.74 98.42 181.04 83.98 181.06 70.89 Z" />
<path fill="#588fba" d=" M 94.23 73.23 C 94.82 73.82 94.82 73.82 94.23 73.23 Z" />
<path fill="#588fba" d=" M 91.23 74.23 C 91.82 74.82 91.82 74.82 91.23 74.23 Z" />
<path fill="#588fba" d=" M 101.02 75.80 C 100.54 75.56 100.54 75.56 101.02 75.80 Z" />
<path fill="#abc5e2" d=" M 40.65 112.28 C 37.66 100.17 39.83 87.37 43.79 75.75 C 43.67 87.97 39.61 99.89 40.65 112.28 Z" />
<path fill="#588fba" d=" M 86.24 76.11 C 89.34 74.60 86.46 79.32 86.24 76.11 Z" />
<path fill="#588fba" d=" M 101.02 75.80 L 101.92 75.93 C 102.00 76.41 102.14 77.36 102.22 77.84 C 101.92 77.33 101.32 76.31 101.02 75.80 Z" />
<path fill="#4790c7" d=" M 101.92 75.93 C 102.42 76.25 103.43 76.89 103.93 77.21 C 103.73 77.40 103.35 77.78 103.15 77.97 L 102.22 77.84 C 102.14 77.36 102.00 76.41 101.92 75.93 Z" />
<path fill="#588fba" d=" M 92.19 77.11 C 95.50 79.13 88.61 79.54 92.19 77.11 Z" />
<path fill="#588fba" d=" M 97.23 77.23 C 97.82 77.82 97.82 77.82 97.23 77.23 Z" />
<path fill="#3782ba" d=" M 103.15 77.97 C 103.35 77.78 103.73 77.40 103.93 77.21 C 103.73 77.40 103.35 77.78 103.15 77.97 Z" />
<path fill="#588fba" d=" M 102.22 77.84 L 103.15 77.97 C 103.95 80.24 100.82 79.82 102.22 77.84 Z" />
<path fill="#588fba" d=" M 88.23 80.23 C 88.82 80.82 88.82 80.82 88.23 80.23 Z" />
<path fill="#588fba" d=" M 91.23 80.23 C 91.82 80.82 91.82 80.82 91.23 80.23 Z" />
<path fill="#588fba" d=" M 95.00 81.00 C 94.33 80.33 94.33 80.33 95.00 81.00 Z" />
<path fill="#588fba" d=" M 95.00 81.00 C 95.67 81.67 95.67 81.67 95.00 81.00 Z" />
<path fill="#588fba" d=" M 90.23 82.23 C 90.82 82.82 90.82 82.82 90.23 82.23 Z" />
<path fill="#6da5cf" d=" M 95.23 87.98 C 99.76 81.04 109.15 79.94 111.90 89.08 C 114.31 93.17 115.75 97.71 117.70 102.01 C 115.15 106.44 111.19 111.37 105.21 110.07 C 96.70 106.86 98.66 96.40 94.71 89.74 C 94.84 89.30 95.10 88.42 95.23 87.98 Z" />
<path fill="#588fba" d=" M 89.11 84.24 C 92.32 84.46 87.60 87.34 89.11 84.24 Z" />
<path fill="#588fba" d=" M 91.23 84.23 C 91.82 84.82 91.82 84.82 91.23 84.23 Z" />
<path fill="#588fba" d=" M 111.90 89.08 C 111.16 86.25 110.24 81.84 113.25 86.19 C 116.17 93.09 121.53 98.79 123.81 106.09 C 116.12 103.38 115.32 110.56 116.02 115.82 C 112.30 116.24 108.25 118.07 104.68 116.35 C 104.87 114.25 105.04 112.16 105.21 110.07 C 111.19 111.37 115.15 106.44 117.70 102.01 C 115.75 97.71 114.31 93.17 111.90 89.08 Z" />
<path fill="#588fba" d=" M 92.73 91.66 C 92.52 89.11 92.33 83.73 95.23 87.98 C 95.10 88.42 94.84 89.30 94.71 89.74 C 94.35 90.87 94.01 92.01 93.71 93.15 C 93.46 92.78 92.97 92.03 92.73 91.66 Z" />
<path fill="#588fba" d=" M 89.97 89.04 C 88.61 85.84 93.15 88.52 89.97 89.04 Z" />
<path fill="#5e8bbb" d=" M 51.71 142.33 C 46.41 124.66 42.15 106.43 45.74 87.78 C 46.61 100.35 47.04 113.30 51.93 125.12 C 55.44 139.72 64.02 152.15 70.62 165.40 C 68.34 178.35 64.43 191.48 61.77 204.36 C 59.88 197.66 62.35 190.98 63.38 184.40 C 67.22 169.00 60.01 154.65 51.71 142.33 Z" />
<path fill="#7995a9" d=" M 190.25 87.85 C 192.00 95.13 190.99 102.88 190.26 110.25 C 190.02 102.78 189.99 95.32 190.25 87.85 Z" />
<path fill="#588fba" d=" M 89.97 89.04 C 91.70 93.19 86.59 90.64 89.97 89.04 Z" />
<path fill="#4790c7" d=" M 93.71 93.15 C 94.01 92.01 94.35 90.87 94.71 89.74 C 98.66 96.40 96.70 106.86 105.21 110.07 C 105.04 112.16 104.87 114.25 104.68 116.35 C 100.02 112.21 93.98 106.89 93.80 100.35 C 93.78 98.55 93.73 94.95 93.71 93.15 Z" />
<path fill="#3782ba" d=" M 91.64 94.75 C 92.00 93.71 92.37 92.68 92.73 91.66 C 92.97 92.03 93.46 92.78 93.71 93.15 C 93.73 94.95 93.78 98.55 93.80 100.35 C 91.32 99.68 92.12 96.67 91.64 94.75 Z" />
<path fill="#3c86be" d=" M 80.28 105.22 C 83.68 101.34 87.57 97.90 91.64 94.75 C 92.12 96.67 91.32 99.68 93.80 100.35 C 93.98 106.89 100.02 112.21 104.68 116.35 C 108.25 118.07 112.30 116.24 116.02 115.82 C 123.10 121.96 126.94 131.02 133.94 137.07 C 139.70 140.58 136.94 131.55 137.95 128.08 C 142.84 132.60 149.99 132.98 155.17 136.85 C 150.34 137.37 144.99 136.13 140.53 138.46 C 138.01 143.96 128.02 144.32 125.23 138.74 C 118.98 134.65 121.67 149.79 113.97 145.07 C 104.80 145.83 96.60 140.80 90.02 134.97 C 92.51 135.26 97.55 137.66 95.89 133.11 C 91.01 123.66 84.19 115.24 80.28 105.22 Z" />
<path fill="#66a8d6" d=" M 61.90 100.98 C 66.69 108.11 70.27 119.27 79.96 120.08 C 79.30 117.65 78.44 115.26 78.10 112.76 C 82.65 117.89 88.49 122.99 89.98 129.98 C 90.84 132.31 88.67 132.01 87.08 132.06 C 86.19 131.25 85.26 130.48 84.30 129.78 C 79.93 123.15 69.80 124.03 67.32 115.76 C 64.87 111.12 61.73 106.45 61.90 100.98 Z" />
<path fill="#5498ca" d=" M 116.02 115.82 C 115.32 110.56 116.12 103.38 123.81 106.09 C 134.94 115.31 148.24 122.00 156.83 134.06 C 158.38 136.68 158.48 139.20 155.17 136.85 C 149.99 132.98 142.84 132.60 137.95 128.08 C 136.94 131.55 139.70 140.58 133.94 137.07 C 126.94 131.02 123.10 121.96 116.02 115.82 Z" />
<path fill="#2c71aa" d=" M 86.14 145.86 C 82.59 140.26 90.85 137.70 93.23 141.80 C 98.94 147.78 107.31 151.16 115.55 149.41 C 126.17 147.99 137.44 148.25 147.21 143.31 C 155.57 139.23 165.95 147.92 164.80 156.93 C 159.73 158.66 150.80 162.46 153.92 168.95 C 153.51 168.90 152.71 168.80 152.31 168.75 C 155.63 158.55 141.50 153.38 133.84 156.72 C 123.33 155.09 112.66 159.60 102.30 156.73 C 97.37 153.87 95.75 157.45 93.18 160.32 C 94.51 154.55 86.13 151.79 86.14 145.86 Z" />
<path fill="#9db3c7" d=" M 174.09 157.91 C 174.27 159.46 174.63 162.57 174.80 164.12 C 174.63 162.57 174.27 159.46 174.09 157.91 Z" />
<path fill="#285382" d=" M 84.95 163.25 C 93.63 163.93 102.31 162.91 110.98 164.23 C 122.75 166.71 134.53 163.08 146.36 164.61 C 151.40 168.49 156.39 172.81 158.79 178.89 C 158.42 178.92 157.68 178.97 157.31 179.00 C 154.76 172.30 148.22 176.50 144.15 179.09 C 127.44 182.62 110.97 176.47 94.20 178.12 C 92.89 179.28 93.10 181.12 92.80 182.69 C 91.77 183.02 90.75 183.37 89.74 183.74 C 80.28 187.33 81.24 199.74 75.81 206.91 C 74.54 206.06 73.26 205.22 71.98 204.40 C 71.75 201.79 69.32 203.88 68.67 205.13 C 64.50 201.17 74.05 192.75 74.31 186.92 C 77.31 183.30 76.89 178.49 78.24 174.27 C 81.45 173.19 84.87 172.96 88.09 171.94 C 87.36 168.93 85.95 166.16 84.95 163.25 Z" />
<path fill="#fdfefe" d=" M 144.15 179.09 C 148.22 176.50 154.76 172.30 157.31 179.00 C 159.64 187.65 159.27 198.13 168.11 203.15 C 171.20 212.77 169.75 223.05 169.99 233.00 L 73.97 233.00 C 74.03 231.31 74.16 227.93 74.23 226.24 C 75.06 220.23 74.86 214.16 75.12 208.13 C 75.29 207.82 75.64 207.21 75.81 206.91 C 81.24 199.74 80.28 187.33 89.74 183.74 C 92.58 183.71 95.43 183.69 98.28 183.70 C 113.58 187.19 130.37 187.44 144.15 179.09 Z" />
<path fill="#60a3d4" d=" M 166.02 174.92 C 171.30 175.85 172.45 187.89 167.14 186.97 C 167.03 182.92 166.50 178.93 166.02 174.92 Z" />
<path fill="#405f88" d=" M 94.20 178.12 C 110.97 176.47 127.44 182.62 144.15 179.09 C 130.37 187.44 113.58 187.19 98.28 183.70 C 96.46 183.30 94.63 182.98 92.80 182.69 C 93.10 181.12 92.89 179.28 94.20 178.12 Z" />
<path fill="#97aac1" d=" M 89.74 183.74 C 90.75 183.37 91.77 183.02 92.80 182.69 C 94.63 182.98 96.46 183.30 98.28 183.70 C 95.43 183.69 92.58 183.71 89.74 183.74 Z" />
<path fill="#56626a" d=" M 173.77 197.84 C 175.16 197.21 176.57 196.62 177.95 195.96 C 177.65 197.26 177.22 198.53 176.92 199.83 C 175.41 206.52 175.97 213.42 176.20 220.22 C 176.06 224.48 176.02 228.73 175.98 233.00 L 174.09 233.00 C 173.97 231.42 173.85 229.85 173.69 228.29 C 173.78 223.77 173.85 219.27 173.82 214.77 C 174.67 209.13 172.42 203.39 173.77 197.84 Z" />
<path fill="#d5e1e3" d=" M 170.83 201.95 C 170.81 199.98 171.74 198.27 173.77 197.84 C 172.42 203.39 174.67 209.13 173.82 214.77 C 173.28 219.21 172.32 223.89 173.69 228.29 C 173.85 229.85 173.97 231.42 174.09 233.00 L 172.00 233.00 C 171.45 222.69 173.34 212.07 170.83 201.95 Z" />
<path fill="#c8cfd4" d=" M 176.20 220.22 C 175.97 213.42 175.41 206.52 176.92 199.83 C 176.99 206.63 177.22 213.46 176.20 220.22 Z" />
<path fill="#a7b0b7" d=" M 168.11 203.15 C 169.02 202.76 169.93 202.36 170.83 201.95 C 173.34 212.07 171.45 222.69 172.00 233.00 L 169.99 233.00 C 169.75 223.05 171.20 212.77 168.11 203.15 Z" />
<path fill="#cfdae1" d=" M 68.67 205.13 C 69.32 203.88 71.75 201.79 71.98 204.40 C 71.50 209.51 72.11 214.66 71.82 219.79 C 71.28 224.17 71.04 228.58 70.94 233.00 L 69.99 233.00 C 70.01 224.34 70.37 215.60 68.93 207.02 C 68.87 206.55 68.74 205.60 68.67 205.13 Z" />
<path fill="#535f67" d=" M 71.82 219.79 C 72.11 214.66 71.50 209.51 71.98 204.40 C 73.26 205.22 74.54 206.06 75.81 206.91 C 75.64 207.21 75.29 207.82 75.12 208.13 C 73.09 213.91 74.20 220.21 74.23 226.24 C 74.16 227.93 74.03 231.31 73.97 233.00 L 72.00 233.00 C 71.97 228.59 71.87 224.19 71.82 219.79 Z" />
<path fill="#a5b0b5" d=" M 63.69 208.42 C 65.65 209.26 67.44 208.27 68.93 207.02 C 70.37 215.60 70.01 224.34 69.99 233.00 L 68.01 233.00 C 66.90 225.04 71.34 213.73 63.69 208.42 Z" />
<path fill="#cdd5db" d=" M 74.23 226.24 C 74.20 220.21 73.09 213.91 75.12 208.13 C 74.86 214.16 75.06 220.23 74.23 226.24 Z" />
<path fill="#a1aaa8" d=" M 173.69 228.29 C 172.32 223.89 173.28 219.21 173.82 214.77 C 173.85 219.27 173.78 223.77 173.69 228.29 Z" />
<path fill="#a3acad" d=" M 70.94 233.00 C 71.04 228.58 71.28 224.17 71.82 219.79 C 71.87 224.19 71.97 228.59 72.00 233.00 L 70.94 233.00 Z" />


<text id="display_digit1" x="75" y="100"
  font-family="Courier"
  font-size="35">
      0
</text>
<text id="display_digit2" x="95" y="100"
  font-family="Courier"
  font-size="35">
      0
</text>
<text id="display_digit3" x="115" y="100"
  font-family="Courier"
  font-size="35">
      0
</text>
<text id="display_letter" contentEditable="true" x="135" y="100"
  font-family="Courier"
  font-size="35">
      C
</text>

</svg>
